<svg id="Layer_1" data-name="Layer 1" xmlns="http://www.w3.org/2000/svg" viewBox="0 0 193 188"><defs><style>.cls-1{fill:#009bcc;}.cls-2{fill:#fff;}.cls-3{opacity:0.45;}.cls-4{fill:#2eb5f6;}</style></defs><circle class="cls-1" cx="96.9" cy="94.16" r="87.22" transform="translate(-6.36 181.31) rotate(-84.34)"/><path class="cls-2" d="M96.9,8A86.22,86.22,0,1,1,10.68,94.16,86.3,86.3,0,0,1,96.9,8m0-2a88.22,88.22,0,1,0,88.21,88.21A88.21,88.21,0,0,0,96.9,6Z"/><g class="cls-3"><path class="cls-1" d="M110.62,17.87Q103.76,56,96.9,94.16q9.81,10.25,19.8,21.61,5.46,6.23,10.58,12.38"/><path class="cls-4" d="M127.28,133.32a5.16,5.16,0,0,1-4-1.86c-3.43-4.11-7-8.25-10.49-12.28-6.36-7.26-13-14.47-19.65-21.43a5.18,5.18,0,0,1-1.36-4.5L105.53,17a5.18,5.18,0,1,1,10.19,1.83l-13.26,73.7c6.16,6.48,12.25,13.16,18.13,19.87,3.6,4.1,7.18,8.29,10.66,12.47a5.17,5.17,0,0,1-4,8.49Z"/></g><path class="cls-2" d="M22.7,83.51h-7l1.06-5.43H36.92l-1,5.43h-7.1l-4.59,24.23H18.11Z"/><path class="cls-2" d="M33.44,107.74l4.1-21.54h6.09l-4.1,21.54Zm5-27.2A3.48,3.48,0,0,1,42,77a2.85,2.85,0,0,1,3,3,3.42,3.42,0,0,1-3.57,3.52A2.79,2.79,0,0,1,38.48,80.54Z"/><path class="cls-2" d="M44.44,107.74l2.71-14.52c.5-2.67.84-5,1.12-7h5.22l-.34,3.35h.08a8.21,8.21,0,0,1,6.91-3.79,4.3,4.3,0,0,1,4.65,3.85,8.45,8.45,0,0,1,7-3.85c3.13,0,4.87,2.07,4.87,5.46a27.18,27.18,0,0,1-.42,3.89l-2.38,12.63H67.91l2.25-12.06a16.53,16.53,0,0,0,.31-2.79c0-1.33-.59-2.23-1.88-2.23-1.84,0-3.8,2.52-4.61,6.82L62,107.74H56.17l2.28-12.11A14.4,14.4,0,0,0,58.76,93c0-1.32-.43-2.33-1.8-2.33-1.82,0-4,2.69-4.71,6.87l-1.88,10.21Z"/><path class="cls-2" d="M95.58,106.6a17.73,17.73,0,0,1-7.49,1.55c-5.91,0-8.72-3.49-8.72-8.8,0-6.46,4.37-13.59,11.87-13.59,4.25,0,7,2.6,7,6.29,0,5.59-5.16,7.65-13,7.44a4.5,4.5,0,0,0,.63,2.3,4.39,4.39,0,0,0,3.77,1.62,12.24,12.24,0,0,0,5.54-1.28ZM90.49,90.34c-2.56,0-4.21,2.34-4.68,4.67,4.31.07,6.78-.75,6.78-2.8A1.85,1.85,0,0,0,90.49,90.34Z"/><path class="cls-2" d="M103.23,107.74l-.52-29.66h6.18l-.25,13.23c-.1,3.5-.25,6.77-.43,9.6h.1c1-3,2-5.93,3.3-9.36l5.25-13.47h6.39L123,91.33c-.06,3.43-.2,6.45-.41,9.47h.1c.94-3.1,2-6.27,3.06-9.39l4.88-13.33H137l-12.31,29.66h-6.59l-.14-11.5c0-3.42.11-6.56.35-9.8h-.09c-1.06,3.13-2.1,6.38-3.66,10.14l-4.7,11.16Z"/><path class="cls-2" d="M133.59,107.74l4.1-21.54h6.08l-4.1,21.54Zm5-27.2A3.48,3.48,0,0,1,142.09,77a2.85,2.85,0,0,1,3,3,3.41,3.41,0,0,1-3.56,3.52A2.78,2.78,0,0,1,138.63,80.54Z"/><path class="cls-2" d="M145.4,102.37a11.52,11.52,0,0,0,5,1.3c1.74,0,2.65-.93,2.65-2.09s-.66-1.85-2.51-2.89c-2.29-1.31-4-3.16-4-5.58,0-4.31,3.67-7.35,9-7.35a11,11,0,0,1,5.09,1l-1.41,4.34a8.89,8.89,0,0,0-3.78-.86c-1.7,0-2.82.79-2.82,2,0,1,.81,1.67,2.33,2.5,2.36,1.4,4.33,3.22,4.33,5.81,0,4.87-3.92,7.54-9.39,7.54a11.11,11.11,0,0,1-5.94-1.51Z"/><path class="cls-2" d="M178.43,106.6a17.7,17.7,0,0,1-7.49,1.55c-5.91,0-8.72-3.49-8.72-8.8,0-6.46,4.37-13.59,11.87-13.59,4.25,0,6.95,2.6,7,6.29,0,5.59-5.16,7.65-13,7.44a4.5,4.5,0,0,0,.63,2.3,4.39,4.39,0,0,0,3.77,1.62,12.24,12.24,0,0,0,5.54-1.28Zm-5.09-16.26c-2.56,0-4.21,2.34-4.68,4.67,4.31.07,6.78-.75,6.78-2.8A1.85,1.85,0,0,0,173.34,90.34Z"/></svg>